<?xml version="1.0" encoding="UTF-8"?>
<svg width="209px" height="209px" viewBox="0 0 209 209" version="1.1" xmlns="http://www.w3.org/2000/svg" xmlns:xlink="http://www.w3.org/1999/xlink">
    <!-- <title>iOS/IT</title> -->
    <defs>
        <linearGradient x1="94.4496867%" y1="-44.8709734%" x2="29.378303%" y2="85.7761284%" id="linearGradient-it-1">
            <stop stop-color="#00E089" offset="0%"></stop>
            <stop stop-color="#0AB98F" offset="100%"></stop>
        </linearGradient>
    </defs>
    <g id="iOS/IT" stroke="none" stroke-width="1" fill="none" fill-rule="evenodd">
        <g id="Group" transform="translate(34.000000, 16.000000)" fill="url(#linearGradient-it-1)" fill-rule="nonzero">
            <path d="M9,129.579719 C9,131.657125 10.1695201,133.549818 12.0100648,134.483851 L12.2253849,134.587326 L68.2253849,160.024316 C69.5857144,160.642222 71.1348815,160.678569 72.5174272,160.133358 L72.7746151,160.024316 L82,155.833 L82,126 L78,126 L78,110 L94,110 L94,126 L90,126 L90,152.199 L106,144.932 L106,125.999 L102,126 L102,110 L118,110 L118,126 L114,125.999 L114,141.298 L128.774615,134.587326 C130.66604,133.72818 131.905613,131.880609 131.994838,129.818556 L132,129.579719 L132,38 C132,35.0365209 129.65622,32.6204609 126.721207,32.5043672 L126.5,32.5 L113.913,32.5 L113.913314,66.5245368 L73.3925657,98 L58,97.999 L58,102 L22,102 L22,86 L58,86 L58,90 L70.5,90 L106.033877,62.5250684 L106.033046,22.3860569 C101.505787,20.8406789 98.25,16.5505544 98.25,11.5 C98.25,5.14872538 103.398725,0 109.75,0 C116.101275,0 121.25,5.14872538 121.25,11.5 C121.25,16.3829241 118.206748,20.5550586 113.913465,22.223183 L113.913,23.5 L126.5,23.5 C134.402759,23.5 140.828899,29.8221564 140.99664,37.6846885 L141,38 L141,129.579719 C141,135.153415 137.806654,140.222754 132.805173,142.637109 L132.496713,142.781591 L76.4967126,168.218582 C72.8091624,169.893585 68.5952671,169.947618 64.8737592,168.380679 L64.5032874,168.218582 L8.50328738,142.781591 C3.42858212,140.476498 0.13374197,135.472532 0.00397824595,129.920317 L0,129.579719 L0,38 C0,30.0972412 6.32215635,23.6711012 14.1846885,23.5033605 L14.5,23.5 L75.6410511,23.4997189 C77.5012149,19.6531449 81.4407699,17 86,17 C92.3512746,17 97.5,22.1487254 97.5,28.5 C97.5,33.4644445 94.3542858,37.694168 89.9473992,39.3046289 L89.9011692,56.7857849 L67.8925657,73.9286941 L58,73.928 L58,78 L22,78 L22,62 L58,62 L58,65.928 L65,65.9286941 L82.0478243,52.7472504 L82.0475779,39.302792 C78.8919769,38.147927 76.383683,35.649834 75.2150688,32.5008857 L14.5,32.5 C11.5365209,32.5 9.12046086,34.84378 9.0043672,37.7787929 L9,38 L9,114 L22,114 L22,110 L58,110 L58,126 L22,126 L22,122 L9,122 L9,129.579719 Z M86,24.5 C83.790861,24.5 82,26.290861 82,28.5 C82,30.709139 83.790861,32.5 86,32.5 C88.209139,32.5 90,30.709139 90,28.5 C90,26.290861 88.209139,24.5 86,24.5 Z M109.75,7.5 C107.540861,7.5 105.75,9.290861 105.75,11.5 C105.75,13.709139 107.540861,15.5 109.75,15.5 C111.959139,15.5 113.75,13.709139 113.75,11.5 C113.75,9.290861 111.959139,7.5 109.75,7.5 Z" id="circuit-board"></path>
        </g>
    </g>
</svg>