<?xml version="1.0" encoding="UTF-8"?>
<svg width="50px" height="50px" viewBox="0 0 50 50" version="1.1" xmlns="http://www.w3.org/2000/svg" xmlns:xlink="http://www.w3.org/1999/xlink">
    <!-- Generator: Sketch 63.1 (92452) - https://sketch.com -->
    <title>Web Study/app icon/IT &amp; cybersecurity-webstudy</title>
    <desc>Created with Sketch.</desc>
    <defs>
        <path d="M41.3875598,0 L41.3875598,45.6937799 L0,45.6937799 L0,0 L41.3875598,0 Z M29.6650718,6.93779904 L22.2488038,6.93779904 L22.2488038,11.0047847 L29.6650718,11.0047847 L29.6650718,6.93779904 Z" id="path-1"></path>
        <linearGradient x1="88.6884668%" y1="-17.3388344%" x2="43.3295873%" y2="71.1637853%" id="linearGradient-3">
            <stop stop-color="#FFFFFF" offset="0%"></stop>
            <stop stop-color="#DFE3E7" offset="100%"></stop>
        </linearGradient>
        <linearGradient x1="81.492049%" y1="0%" x2="46.246707%" y2="70.7888024%" id="linearGradient-4">
            <stop stop-color="#FFFFFF" offset="0%"></stop>
            <stop stop-color="#DFE3E7" offset="100%"></stop>
        </linearGradient>
    </defs>
    <g id="Web-Study/app-icon/IT-&amp;-cybersecurity-webstudy" stroke="none" stroke-width="1" fill="none" fill-rule="evenodd" opacity="0.7">
        <g id="Group" transform="translate(-0.240000, 1.674641)">
            <g id="pocket" transform="translate(5.502392, 0.000000)">
                <mask id="mask-2" fill="white">
                    <use xlink:href="#path-1"></use>
                </mask>
                <g id="Combined-Shape"></g>
                <path d="M33.1339713,7.77511962 L6.33971292,7.77511962 C4.42389261,7.77511962 2.8708134,9.32819883 2.8708134,11.2440191 L2.8708134,33.1530428 C2.8708134,34.5136756 3.66627194,35.7486735 4.90509267,36.3113855 L18.3022219,42.39679 C19.2138172,42.8108657 20.259867,42.8108657 21.1714623,42.39679 L34.5685915,36.3113855 C35.8074123,35.7486735 36.6028708,34.5136756 36.6028708,33.1530428 L36.6028708,11.2440191 C36.6028708,9.32819883 35.0497916,7.77511962 33.1339713,7.77511962 Z M6.33971292,9.92822967 L33.1339713,9.92822967 C33.8606618,9.92822967 34.4497608,10.5173287 34.4497608,11.2440191 L34.4497608,33.1530428 C34.4497608,33.6691449 34.1480351,34.1375924 33.6781376,34.3510349 L20.2810084,40.4364393 C19.9352309,40.5935025 19.5384534,40.5935025 19.1926758,40.4364393 L5.79554662,34.3510349 C5.3256491,34.1375924 5.02392344,33.6691449 5.02392344,33.1530428 L5.02392344,11.2440191 C5.02392344,10.5173287 5.61302246,9.92822967 6.33971292,9.92822967 Z" id="D02" fill="url(#linearGradient-3)" fill-rule="nonzero" mask="url(#mask-2)"></path>
            </g>
            <path d="M31.1016029,28.4653589 L31.1016029,32.29311 L30.1431435,32.29311 L30.1435407,40.1004785 L28.2296651,40.1004785 L28.2291435,32.29311 L27.2716029,32.29311 L27.2716029,28.4653589 L31.1016029,28.4653589 Z M36.8421053,28.4688995 L36.8421053,32.2966507 L35.8851435,32.29611 L35.8851675,37.0813397 L33.9712919,37.0813397 L33.9711435,32.29611 L33.0143541,32.2966507 L33.0143541,28.4688995 L36.8421053,28.4688995 Z M22.4880383,28.4688995 L22.4880383,32.2966507 L13.8755981,32.2966507 L13.8751435,31.33911 L9.33014354,31.3397129 L9.33014354,29.4258373 L13.8751435,29.42511 L13.8755981,28.4688995 L22.4880383,28.4688995 Z M34.8684211,2.15311005 C36.3878647,2.15311005 37.6196172,3.38486253 37.6196172,4.90430622 C37.6196172,6.07231395 36.8917609,7.07032173 35.8648766,7.46950119 L35.8644293,18.068071 L26.1704703,25.5980861 L22.4871435,25.59711 L22.4880383,26.5550239 L13.8755981,26.5550239 L13.8755981,22.7272727 L22.4880383,22.7272727 L22.4871435,23.68411 L25.4784689,23.6842105 L33.9793965,17.1112604 L33.9791537,7.50861109 C32.8961004,7.13889068 32.1172249,6.11255651 32.1172249,4.90430622 C32.1172249,3.38486253 33.3489774,2.15311005 34.8684211,2.15311005 Z M29.1866029,6.22009569 C30.7060466,6.22009569 31.937799,7.45184818 31.937799,8.97129187 C31.937799,10.1590444 31.1851264,11.1710008 30.1307267,11.5562154 L30.1198969,15.7382261 L24.8546808,19.8394005 L22.4871435,19.83911 L22.4880383,20.8133971 L13.8755981,20.8133971 L13.8755981,16.9856459 L22.4880383,16.9856459 L22.4871435,17.92511 L24.1626794,17.9255249 L28.2411063,14.7720695 L28.2404943,11.5554894 C27.187135,11.1697306 26.4354067,10.158299 26.4354067,8.97129187 C26.4354067,7.45184818 27.6671592,6.22009569 29.1866029,6.22009569 Z M29.1866029,8.01435407 C28.6581007,8.01435407 28.2296651,8.44278971 28.2296651,8.97129187 C28.2296651,9.49979402 28.6581007,9.92822967 29.1866029,9.92822967 C29.715105,9.92822967 30.1435407,9.49979402 30.1435407,8.97129187 C30.1435407,8.44278971 29.715105,8.01435407 29.1866029,8.01435407 Z M34.8684211,3.94736842 C34.3399189,3.94736842 33.9114833,4.37580407 33.9114833,4.90430622 C33.9114833,5.43280837 34.3399189,5.86124402 34.8684211,5.86124402 C35.3969232,5.86124402 35.8253589,5.43280837 35.8253589,4.90430622 C35.8253589,4.37580407 35.3969232,3.94736842 34.8684211,3.94736842 Z" id="diagram-circuit-board" fill="url(#linearGradient-4)"></path>
        </g>
    </g>
</svg>