<?xml version="1.0" encoding="UTF-8"?>
<svg width="50px" height="50px" viewBox="0 0 50 50" version="1.1" xmlns="http://www.w3.org/2000/svg" xmlns:xlink="http://www.w3.org/1999/xlink">
    <!-- Generator: Sketch 63.1 (92452) - https://sketch.com -->
    <title>Web Study/app icon/nursing-webstudy</title>
    <desc>Created with Sketch.</desc>
    <defs>
        <linearGradient x1="88.6884668%" y1="-17.3388344%" x2="43.3295873%" y2="71.1637853%" id="linearGradient-1">
            <stop stop-color="#FFFFFF" offset="0%"></stop>
            <stop stop-color="#DFE3E7" offset="100%"></stop>
        </linearGradient>
        <linearGradient x1="136.992489%" y1="-17.0806407%" x2="43.2465442%" y2="70.7888024%" id="linearGradient-2">
            <stop stop-color="#FFFFFF" offset="0%"></stop>
            <stop stop-color="#DFE3E7" offset="100%"></stop>
        </linearGradient>
    </defs>
    <g id="Web-Study/app-icon/nursing-webstudy" stroke="none" stroke-width="1" fill="none" fill-rule="evenodd" opacity="0.7">
        <g id="D02-pocket-scaled-up" transform="translate(7.000000, 9.000000)">
            <path d="M31.1578947,0.449760766 L4.36363636,0.449760766 C2.44781606,0.449760766 0.894736842,2.00283998 0.894736842,3.91866029 L0.894736842,25.827684 C0.894736842,27.1883168 1.69019538,28.4233147 2.92901612,28.9860267 L16.3261453,35.0714311 C17.2377407,35.4855069 18.2837904,35.4855069 19.1953858,35.0714311 L32.592515,28.9860267 C33.8313357,28.4233147 34.6267943,27.1883168 34.6267943,25.827684 L34.6267943,3.91866029 C34.6267943,2.00283998 33.073715,0.449760766 31.1578947,0.449760766 Z M4.36363636,2.60287081 L31.1578947,2.60287081 C31.8845852,2.60287081 32.4736842,3.19196983 32.4736842,3.91866029 L32.4736842,25.827684 C32.4736842,26.3437861 32.1719586,26.8122335 31.702061,27.025676 L18.3049318,33.1110805 C17.9591543,33.2681437 17.5623768,33.2681437 17.2165993,33.1110805 L3.81947006,27.025676 C3.34957254,26.8122335 3.04784689,26.3437861 3.04784689,25.827684 L3.04784689,3.91866029 C3.04784689,3.19196983 3.6369459,2.60287081 4.36363636,2.60287081 Z" id="frame-outlined" fill="url(#linearGradient-1)" fill-rule="nonzero"></path>
            <path d="M21.3642344,7.98564593 L21.3637081,13.5926459 L26.9712919,13.5927033 L26.9712919,20.3211722 L21.3637081,20.3206459 L21.3642344,25.9282297 L14.6357656,25.9282297 L14.6357081,20.3206459 L9.02870813,20.3211722 L9.02870813,13.5927033 L14.6357081,13.5926459 L14.6357656,7.98564593 L21.3642344,7.98564593 Z" id="Combined-Shape" fill="url(#linearGradient-2)"></path>
        </g>
    </g>
</svg>