<?xml version="1.0" encoding="UTF-8"?>
<svg width="209px" height="209px" viewBox="0 0 209 209" version="1.1" xmlns="http://www.w3.org/2000/svg" xmlns:xlink="http://www.w3.org/1999/xlink">
    <!-- <title>iOS/nursing</title> -->
    <defs>
        <linearGradient x1="86.4188806%" y1="-6.11366683%" x2="24.4008354%" y2="82.5071923%" id="linearGradient-nursing-1">
            <stop stop-color="#FF6E88" offset="0%"></stop>
            <stop stop-color="#FF6363" offset="100%"></stop>
        </linearGradient>
    </defs>
    <g id="iOS/nursing" stroke="none" stroke-width="1" fill="none" fill-rule="evenodd">
        <path d="M160.5,39.5 C168.508129,39.5 175,45.9918711 175,54 L175,54 L175,145.579719 C175,151.267164 171.674983,156.429455 166.496713,158.781591 L166.496713,158.781591 L110.496713,184.218582 C106.686244,185.949419 102.313756,185.949419 98.5032874,184.218582 L98.5032874,184.218582 L42.5032874,158.781591 C37.3250167,156.429455 34,151.267164 34,145.579719 L34,145.579719 L34,54 C34,45.9918711 40.4918711,39.5 48.5,39.5 L48.5,39.5 Z M160.5,48.5 L48.5,48.5 C45.4624339,48.5 43,50.9624339 43,54 L43,54 L43,145.579719 C43,147.737026 44.2612132,149.695136 46.2253849,150.587326 L46.2253849,150.587326 L102.225385,176.024316 C103.670735,176.680841 105.329265,176.680841 106.774615,176.024316 L106.774615,176.024316 L162.774615,150.587326 C164.738787,149.695136 166,147.737026 166,145.579719 L166,145.579719 L166,54 C166,50.9624339 163.537566,48.5 160.5,48.5 L160.5,48.5 Z M118.5625,71 L118.562,94.437 L142,94.4375 L142,122.5625 L118.562,122.562 L118.5625,146 L90.4375,146 L90.437,122.562 L67,122.5625 L67,94.4375 L90.437,94.437 L90.4375,71 L118.5625,71 Z" id="nursing-cross" fill="url(#linearGradient-nursing-1)" fill-rule="nonzero"></path>
    </g>
</svg>