<?xml version="1.0" encoding="UTF-8"?>
<svg width="50px" height="50px" viewBox="0 0 50 50" version="1.1" xmlns="http://www.w3.org/2000/svg" xmlns:xlink="http://www.w3.org/1999/xlink">
    <!-- Generator: Sketch 63.1 (92452) - https://sketch.com -->
    <title>Web Study/app icon/nursing school-webstudy</title>
    <desc>Created with Sketch.</desc>
    <defs>
        <linearGradient x1="88.6884668%" y1="-17.3388344%" x2="43.3295873%" y2="71.1637853%" id="linearGradient-1">
            <stop stop-color="#FFFFFF" offset="0%"></stop>
            <stop stop-color="#DFE3E7" offset="100%"></stop>
        </linearGradient>
        <path d="M9.51196172,2 L36.3062201,2 C37.6274755,2 38.6985646,3.07108912 38.6985646,4.3923445 L38.6985646,26.3013682 C38.6985646,27.2397356 38.1499725,28.0914583 37.2956134,28.4795356 L23.8984842,34.56494 C23.2697977,34.8505095 22.5483841,34.8505095 21.9196976,34.56494 L7.5759568,28.0495543 C7.27213379,27.9115681 7.00054806,27.7115343 6.77864263,27.4623224 C2.77953995,22.9711116 0.779988611,19.4588269 0.779988611,16.9254682 C0.779988611,14.3211042 2.89319815,12.2276438 7.11961722,10.645087 L7.11961722,4.3923445 C7.11961722,3.07108912 8.19070634,2 9.51196172,2 Z" id="path-2"></path>
        <linearGradient x1="136.992489%" y1="15.9746947%" x2="43.2465442%" y2="60.5447017%" id="linearGradient-4">
            <stop stop-color="#FFFFFF" offset="0%"></stop>
            <stop stop-color="#DFE3E7" offset="100%"></stop>
        </linearGradient>
    </defs>
    <g id="Web-Study/app-icon/nursing-school-webstudy" stroke="none" stroke-width="1" fill="none" fill-rule="evenodd" opacity="0.7">
        <g id="D02-pocket-scaled-up" transform="translate(1.851675, 8.526316)">
            <path d="M36.3062201,0.923444976 L9.51196172,0.923444976 C7.59614142,0.923444976 6.0430622,2.47652419 6.0430622,4.3923445 L6.0430622,26.3013682 C6.0430622,27.662001 6.83852074,28.8969989 8.07734148,29.4597109 L21.4744707,35.5451153 C22.386066,35.9591911 23.4321158,35.9591911 24.3437112,35.5451153 L37.7408403,29.4597109 C38.9796611,28.8969989 39.7751196,27.662001 39.7751196,26.3013682 L39.7751196,4.3923445 C39.7751196,2.47652419 38.2220404,0.923444976 36.3062201,0.923444976 Z M9.51196172,3.07655502 L36.3062201,3.07655502 C37.0329106,3.07655502 37.6220096,3.66565404 37.6220096,4.3923445 L37.6220096,26.3013682 C37.6220096,26.8174703 37.3202839,27.2859178 36.8503864,27.4993602 L23.4532572,33.5847647 C23.1074797,33.7418279 22.7107022,33.7418279 22.3649246,33.5847647 L8.96779542,27.4993602 C8.4978979,27.2859178 8.19617225,26.8174703 8.19617225,26.3013682 L8.19617225,4.3923445 C8.19617225,3.66565404 8.78527126,3.07655502 9.51196172,3.07655502 Z" id="frame-outline" fill="url(#linearGradient-1)" fill-rule="nonzero"></path>
            <mask id="mask-3" fill="white">
                <use xlink:href="#path-2"></use>
            </mask>
            <g id="mask"></g>
            <path d="M33.0730772,13.0801981 L33.3870191,19.0669713 L39.3742964,18.7538414 C41.0889164,18.663982 42.5517359,19.9811106 42.6415953,21.6957305 C42.7314547,23.4103504 41.4143261,24.8731699 39.6997062,24.9630294 L33.7120191,25.2769713 L34.0260629,31.2642486 C34.1159223,32.9788685 32.7987937,34.441688 31.0841738,34.5315475 C29.3695539,34.6214069 27.9067344,33.3042783 27.8168749,31.5896584 L27.5020191,25.6019713 L21.5156557,25.9160151 C19.8010358,26.0058745 18.3382163,24.6887459 18.2483568,22.974126 C18.1584974,21.259506 19.475626,19.7966865 21.190246,19.7068271 L27.1770191,19.3919713 L26.8638892,13.4056079 C26.7740298,11.6909879 28.0911584,10.2281684 29.8057783,10.138309 C31.5203983,10.0484496 32.9832178,11.3655782 33.0730772,13.0801981 Z M23.5813262,7.2577343 L23.5932879,7.27845256 C24.5148636,8.87466839 23.9679596,10.9157416 22.3717438,11.8373173 L7.01947533,20.7009536 C5.4232595,21.6225293 3.38218624,21.0756253 2.46061061,19.4794095 L2.44864891,19.4586912 C1.52707327,17.8624754 2.07397721,15.8214022 3.67019303,14.8998265 L19.0224615,6.03619018 C20.6186773,5.11461454 22.6597506,5.66151847 23.5813262,7.2577343 Z M15.8012965,9.24880383 L8.96425379,13.1961722 L11.1173638,16.9254682 L17.9544065,12.9780998 L15.8012965,9.24880383 Z" id="bandaids" fill="url(#linearGradient-4)" mask="url(#mask-3)"></path>
        </g>
    </g>
</svg>