<?xml version="1.0" encoding="UTF-8"?>
<svg width="209px" height="209px" viewBox="0 0 209 209" version="1.1" xmlns="http://www.w3.org/2000/svg" xmlns:xlink="http://www.w3.org/1999/xlink">
    <!-- <title>iOS/nursing school non-app</title> -->
    <defs>
        <linearGradient x1="91.4904752%" y1="0.260318889%" x2="43.1327906%" y2="65.2478172%" id="linearGradient-nursingschool-1">
            <stop stop-color="#FF7CE8" offset="0%"></stop>
            <stop stop-color="#C238F3" offset="100%"></stop>
        </linearGradient>
    </defs>
    <g id="iOS/nursing-school-non-app" stroke="none" stroke-width="1" fill="none" fill-rule="evenodd">
        <path d="M160.5,39.5 C168.402759,39.5 174.828899,45.8221564 174.99664,53.6846885 L175,54 L175.000301,114.164742 C180.955158,115.083793 185.654062,120.073226 185.981868,126.328153 C186.334138,133.049857 181.513472,138.84579 175.000732,139.850065 L175,145.579719 C175,151.153415 171.806654,156.222754 166.805173,158.637109 L166.496713,158.781591 L149.966725,166.289 L149.968943,166.324559 C150.344555,173.49167 144.838958,179.606256 137.671847,179.981868 C133.901373,180.179471 130.422197,178.749388 127.916654,176.306001 L110.496713,184.218582 C106.809162,185.893585 102.595267,185.947618 98.8737592,184.380679 L98.5032874,184.218582 L42.5032874,158.781591 C37.4285821,156.476498 34.133742,151.472532 34.0039782,145.920317 L34,145.579719 L33.9999177,123.591576 C27.9729354,125.348257 21.3038535,122.846798 18.0249999,117.167657 L17.9750001,117.081054 C14.1228139,110.408872 16.4088723,101.877186 23.0810545,98.0249999 L33.9997251,91.72 L34,54 C34,46.0972412 40.3221564,39.6711012 48.1846885,39.5033605 L48.5,39.5 L160.5,39.5 Z M160.5,48.5 L48.5,48.5 C45.5365209,48.5 43.1204609,50.84378 43.0043672,53.7787929 L43,54 L42.9997251,86.524 L87.2535367,60.9750001 C93.9257189,57.1228139 102.457405,59.4088723 106.309591,66.0810545 L106.359591,66.1676568 C110.211777,72.839839 107.925719,81.3715252 101.253537,85.2237114 L42.9997251,118.856 L43,145.579719 C43,147.657125 44.1695201,149.549818 46.0100648,150.483851 L46.2253849,150.587326 L102.225385,176.024316 C103.585714,176.642222 105.134881,176.678569 106.517427,176.133358 L106.774615,176.024316 L124.049614,168.177819 C124.034909,168.014388 124.023198,167.850022 124.014537,167.684772 L122.703,142.657 L97.6754409,143.968943 C90.5083296,144.344555 84.393744,138.838958 84.0181316,131.671847 C83.6425192,124.504735 89.1481169,118.39015 96.3152281,118.014537 L121.342,116.703 L120.031057,91.6754409 C119.655445,84.5083296 125.161042,78.393744 132.328153,78.0181316 C139.495265,77.6425192 145.60985,83.1481169 145.985463,90.3152281 L147.296,115.342 L165.999725,114.362 L166,54 C166,51.0365209 163.65622,48.6204609 160.721207,48.5043672 L160.5,48.5 Z M165.999725,140.388 L148.657,141.296 L149.460725,156.634 L162.774615,150.587326 C164.66604,149.72818 165.905613,147.880609 165.994838,145.818556 L166,145.579719 L165.999725,140.388 Z M73.7894192,74.3 L45.2105808,90.8 L54.2105808,106.388457 L82.7894192,89.8884573 L73.7894192,74.3 Z" id="bandaids" fill="url(#linearGradient-nursingschool-1)" fill-rule="nonzero"></path>
    </g>
</svg>