<?xml version="1.0" encoding="UTF-8"?>
<svg width="50px" height="50px" viewBox="0 0 50 50" version="1.1" xmlns="http://www.w3.org/2000/svg" xmlns:xlink="http://www.w3.org/1999/xlink">
    <!-- Generator: Sketch 63.1 (92452) - https://sketch.com -->
    <title>Web Study/app icon/EMT-webstudy</title>
    <desc>Created with Sketch.</desc>
    <defs>
        <linearGradient x1="88.6884668%" y1="-17.3388344%" x2="43.3295873%" y2="71.1637853%" id="linearGradient-1">
            <stop stop-color="#FFFFFF" offset="0%"></stop>
            <stop stop-color="#DFE3E7" offset="100%"></stop>
        </linearGradient>
        <linearGradient x1="136.992489%" y1="-17.0664245%" x2="43.2465442%" y2="70.7843967%" id="linearGradient-2">
            <stop stop-color="#FFFFFF" offset="0%"></stop>
            <stop stop-color="#DFE3E7" offset="100%"></stop>
        </linearGradient>
    </defs>
    <g id="Web-Study/app-icon/EMT-webstudy" stroke="none" stroke-width="1" fill="none" fill-rule="evenodd" opacity="0.7">
        <g id="Group" transform="translate(8.133971, 9.449761)">
            <path d="M30.2631579,6.75015599e-14 L3.46889952,6.75015599e-14 C1.55307922,6.75015599e-14 1.0658141e-13,1.55307922 1.0658141e-13,3.46889952 L1.0658141e-13,25.3779232 C1.0658141e-13,26.738556 0.795458542,27.9735539 2.03427928,28.5362659 L15.4314085,34.6216704 C16.3430038,35.0357461 17.3890536,35.0357461 18.300649,34.6216704 L31.6977781,28.5362659 C32.9365989,27.9735539 33.7320574,26.738556 33.7320574,25.3779232 L33.7320574,3.46889952 C33.7320574,1.55307922 32.1789782,6.75015599e-14 30.2631579,6.75015599e-14 Z M3.46889952,2.15311005 L30.2631579,2.15311005 C30.9898484,2.15311005 31.5789474,2.74220906 31.5789474,3.46889952 L31.5789474,25.3779232 C31.5789474,25.8940253 31.2772217,26.3624728 30.8073242,26.5759153 L17.410195,32.6613197 C17.0644175,32.8183829 16.66764,32.8183829 16.3218624,32.6613197 L2.92473322,26.5759153 C2.4548357,26.3624728 2.15311005,25.8940253 2.15311005,25.3779232 L2.15311005,3.46889952 C2.15311005,2.74220906 2.74220906,2.15311005 3.46889952,2.15311005 Z" id="D02" fill="url(#linearGradient-1)" fill-rule="nonzero"></path>
            <path d="M19.289143,6.81818182 C19.560536,6.81818182 19.7805435,7.03818931 19.7805435,7.30958231 L19.7800332,10.8081818 L22.7952678,9.06077567 C23.0300543,8.92465268 23.3307359,9.00463523 23.4668588,9.23942171 L23.4673052,9.24019314 L25.7727868,13.2501635 C25.9077104,13.4848389 25.827434,13.7844368 25.5932495,13.9202108 L22.5750332,15.6691818 L25.5932495,17.4195021 C25.827434,17.5552761 25.9077104,17.854874 25.7727868,18.0895494 L23.4677501,22.0987475 C23.3475097,22.3078842 23.0968049,22.395179 22.8773334,22.3169912 L22.7968115,22.2798285 C22.7962964,22.2795323 22.7957819,22.2792353 22.7952678,22.2789372 L19.7800332,20.5301818 L19.7805435,24.0301306 C19.7805435,24.3015236 19.560536,24.5215311 19.289143,24.5215311 L14.6821489,24.5215311 C14.4107559,24.5215311 14.1907484,24.3015236 14.1907484,24.0301306 L14.1900332,20.5301818 L11.176024,22.2789372 C10.9412375,22.4150602 10.640556,22.3350777 10.504433,22.1002912 C10.504135,22.0997772 10.5038379,22.0992626 10.5035418,22.0987475 L8.19850509,18.0895494 C8.06358147,17.854874 8.14385788,17.5552761 8.37804237,17.4195021 L11.3960332,15.6691818 L8.37804237,13.9202108 C8.14385788,13.7844368 8.06358147,13.4848389 8.19850509,13.2501635 L10.5035418,9.24096538 C10.6388122,9.00568669 10.9392017,8.92461398 11.1744804,9.05988443 L11.176024,9.06077567 L14.1900332,10.8081818 L14.1907484,7.30958231 C14.1907484,7.03818931 14.4107559,6.81818182 14.6821489,6.81818182 L19.289143,6.81818182 Z" id="Combined-Shape" fill="url(#linearGradient-2)"></path>
        </g>
    </g>
</svg>