<?xml version="1.0" encoding="UTF-8"?>
<svg width="209px" height="209px" viewBox="0 0 209 209" version="1.1" xmlns="http://www.w3.org/2000/svg" xmlns:xlink="http://www.w3.org/1999/xlink">
    <!-- <title>iOS/EMS</title> -->
    <defs>
        <linearGradient x1="86.4188806%" y1="-6.11366683%" x2="24.4008354%" y2="82.5071923%" id="linearGradient-ems-1">
            <stop stop-color="#FF6E88" offset="0%"></stop>
            <stop stop-color="#FF6363" offset="100%"></stop>
        </linearGradient>
    </defs>
    <g id="iOS/EMS" stroke="none" stroke-width="1" fill="none" fill-rule="evenodd">
        <path d="M160.5,39.5 C168.508129,39.5 175,45.9918711 175,54 L175,54 L175,145.579719 C175,151.267164 171.674983,156.429455 166.496713,158.781591 L166.496713,158.781591 L110.496713,184.218582 C106.686244,185.949419 102.313756,185.949419 98.5032874,184.218582 L98.5032874,184.218582 L42.5032874,158.781591 C37.3250167,156.429455 34,151.267164 34,145.579719 L34,145.579719 L34,54 C34,45.9918711 40.4918711,39.5 48.5,39.5 L48.5,39.5 Z M160.5,48.5 L48.5,48.5 C45.4624339,48.5 43,50.9624339 43,54 L43,54 L43,145.579719 C43,147.737026 44.2612132,149.695136 46.2253849,150.587326 L46.2253849,150.587326 L102.225385,176.024316 C103.670735,176.680841 105.329265,176.680841 106.774615,176.024316 L106.774615,176.024316 L162.774615,150.587326 C164.738787,149.695136 166,147.737026 166,145.579719 L166,145.579719 L166,54 C166,50.9624339 163.537566,48.5 160.5,48.5 L160.5,48.5 Z M114.628618,70 C115.76304,70 116.682672,70.9196313 116.682672,72.0540541 L116.682,86.68 L129.28422,79.3740423 C130.265627,78.8050482 131.522476,79.1393753 132.09147,80.1207827 C132.092716,80.1229313 132.093957,80.1250822 132.095195,80.1272353 L141.730249,96.8856834 C142.294229,97.8666267 141.958674,99.118946 140.979783,99.6864812 L128.365,106.999 L140.979783,114.313519 C141.958674,114.881054 142.294229,116.133373 141.730249,117.114317 L132.095195,133.872765 C131.529765,134.85623 130.274137,135.195114 129.290672,134.629683 L129.28422,134.625958 L116.682,127.319 L116.682672,141.945946 C116.682672,143.080369 115.76304,144 114.628618,144 L95.3713824,144 C94.2369597,144 93.3173283,143.080369 93.3173283,141.945946 L93.317,127.319 L80.7157804,134.625958 C79.734373,135.194952 78.4775241,134.860625 77.90853,133.879217 C77.9072843,133.877069 77.9060425,133.874918 77.9048046,133.872765 L68.2697513,117.114317 C67.7057706,116.133373 68.0413259,114.881054 69.0202171,114.313519 L81.634,107 L69.0202171,99.6864812 C68.0413259,99.118946 67.7057706,97.8666267 68.2697513,96.8856834 L77.9048046,80.1272353 C78.4702351,79.1437703 79.7258629,78.8048864 80.7093279,79.3703169 L80.7157804,79.3740423 L93.317,86.68 L93.3173283,72.0540541 C93.3173283,70.9196313 94.2369597,70 95.3713824,70 L114.628618,70 Z" id="app-icon" fill="url(#linearGradient-ems-1)" fill-rule="nonzero"></path>
    </g>
</svg>