<?xml version="1.0" encoding="UTF-8"?>
            <svg width="209px" height="209px" viewBox="0 0 209 209" version="1.1" xmlns="http://www.w3.org/2000/svg" xmlns:xlink="http://www.w3.org/1999/xlink">
                <!-- <title>iOS/finance</title> -->
                <defs>
                    <linearGradient x1="109.908524%" y1="-44.8709734%" x2="22.2064312%" y2="85.7761284%" id="linearGradient-finance-1">
                        <stop stop-color="#00E089" offset="0%"></stop>
                        <stop stop-color="#0AB98F" offset="100%"></stop>
                    </linearGradient>
                </defs>
                <g id="iOS/finance" stroke="none" stroke-width="1" fill="none" fill-rule="evenodd">
                    <path d="M160.5,39.5 C168.508129,39.5 175,45.9918711 175,54 L175,54 L175,145.579719 C175,151.267164 171.674983,156.429455 166.496713,158.781591 L166.496713,158.781591 L110.496713,184.218582 C106.686244,185.949419 102.313756,185.949419 98.5032874,184.218582 L98.5032874,184.218582 L42.5032874,158.781591 C37.3250167,156.429455 34,151.267164 34,145.579719 L34,145.579719 L34,54 C34,45.9918711 40.4918711,39.5 48.5,39.5 L48.5,39.5 Z M160.5,48.5 L48.5,48.5 C45.4624339,48.5 43,50.9624339 43,54 L43,54 L43,67 L59,67 C61.1421954,67 62.8910789,68.6839685 62.9951047,70.8003597 L63,71 L63,77 C63,79.209139 61.209139,81 59,81 L59,81 L43,81 L43,145.579719 C43,147.657125 44.1695201,149.549818 46.0100648,150.483851 L46.2253849,150.587326 L102.225385,176.024316 C103.670735,176.680841 105.329265,176.680841 106.774615,176.024316 L106.774615,176.024316 L162.774615,150.587326 C164.738787,149.695136 166,147.737026 166,145.579719 L166,145.579719 L166,139 L149,139 C146.857805,139 145.108921,137.316032 145.004895,135.19964 L145,135 L145,129 C145,126.790861 146.790861,125 149,125 L149,125 L166,125 L166,54 C166,51.0365209 163.65622,48.6204609 160.721207,48.5043672 L160.5,48.5 Z M105,64 C122.673112,64 137,81.6847524 137,103.5 C137,125.315248 122.673112,143 105,143 C87.326888,143 73,125.315248 73,103.5 C73,81.6847524 87.326888,64 105,64 Z" id="money" fill="url(#linearGradient-finance-1)" fill-rule="nonzero"></path>
                </g>
            </svg>