<?xml version="1.0" encoding="UTF-8"?>
<svg width="50px" height="50px" viewBox="0 0 50 50" version="1.1" xmlns="http://www.w3.org/2000/svg" xmlns:xlink="http://www.w3.org/1999/xlink">
    <!-- Generator: Sketch 63.1 (92452) - https://sketch.com -->
    <title>Web Study/app icon/finance-webstudy</title>
    <desc>Created with Sketch.</desc>
    <defs>
        <linearGradient x1="88.6884668%" y1="-17.3388344%" x2="43.3295873%" y2="71.1637853%" id="linearGradient-1">
            <stop stop-color="#FFFFFF" offset="0%"></stop>
            <stop stop-color="#DFE3E7" offset="100%"></stop>
        </linearGradient>
        <linearGradient x1="97.862561%" y1="18.9438184%" x2="50%" y2="71.3486092%" id="linearGradient-2">
            <stop stop-color="#FFFFFF" offset="0%"></stop>
            <stop stop-color="#DFE3E7" offset="100%"></stop>
        </linearGradient>
    </defs>
    <g id="Web-Study/app-icon/finance-webstudy" stroke="none" stroke-width="1" fill="none" fill-rule="evenodd" opacity="0.7">
        <g id="Group" transform="translate(8.133971, 9.449761)" fill-rule="nonzero">
            <path d="M30.2631579,-4.61852778e-14 L3.46889952,-4.61852778e-14 C1.55307922,-4.61852778e-14 1.0658141e-13,1.55307922 1.0658141e-13,3.46889952 L1.0658141e-13,25.3779232 C1.0658141e-13,26.738556 0.795458542,27.9735539 2.03427928,28.5362659 L15.4314085,34.6216704 C16.3430038,35.0357461 17.3890536,35.0357461 18.300649,34.6216704 L31.6977781,28.5362659 C32.9365989,27.9735539 33.7320574,26.738556 33.7320574,25.3779232 L33.7320574,3.46889952 C33.7320574,1.55307922 32.1789782,-4.61852778e-14 30.2631579,-4.61852778e-14 Z M3.46889952,2.15311005 L30.2631579,2.15311005 C30.9898484,2.15311005 31.5789474,2.74220906 31.5789474,3.46889952 L31.5789474,25.3779232 C31.5789474,25.8940253 31.2772217,26.3624728 30.8073242,26.5759153 L17.410195,32.6613197 C17.0644175,32.8183829 16.66764,32.8183829 16.3218624,32.6613197 L2.92473322,26.5759153 C2.4548357,26.3624728 2.15311005,25.8940253 2.15311005,25.3779232 L2.15311005,3.46889952 C2.15311005,2.74220906 2.74220906,2.15311005 3.46889952,2.15311005 Z" id="D02" fill="url(#linearGradient-1)"></path>
            <path d="M16.9856459,5.86124402 C21.2136632,5.86124402 24.6411483,10.092046 24.6411483,15.3110048 C24.6411483,20.5299635 21.2136632,24.7607656 16.9856459,24.7607656 C12.7576287,24.7607656 9.33014354,20.5299635 9.33014354,15.3110048 C9.33014354,10.092046 12.7576287,5.86124402 16.9856459,5.86124402 Z M32.0574163,20.4545455 C32.5859184,20.4545455 33.0143541,20.8829811 33.0143541,21.4114833 L33.0143541,21.4114833 L33.0143541,22.84689 C33.0143541,23.3753921 32.5859184,23.8038278 32.0574163,23.8038278 L32.0574163,23.8038278 L27.5119617,23.8038278 C26.9834596,23.8038278 26.5550239,23.3753921 26.5550239,22.84689 L26.5550239,22.84689 L26.5550239,21.4114833 C26.5550239,20.8829811 26.9834596,20.4545455 27.5119617,20.4545455 L27.5119617,20.4545455 Z M5.98086124,6.57894737 C6.5093634,6.57894737 6.93779904,7.00738301 6.93779904,7.53588517 L6.93779904,7.53588517 L6.93779904,8.97129187 C6.93779904,9.49979402 6.5093634,9.92822967 5.98086124,9.92822967 L5.98086124,9.92822967 L1.4354067,9.92822967 C0.906904546,9.92822967 0.4784689,9.49979402 0.4784689,8.97129187 L0.4784689,8.97129187 L0.4784689,7.53588517 C0.4784689,7.00738301 0.906904546,6.57894737 1.4354067,6.57894737 L1.4354067,6.57894737 Z" id="Combined-Shape" fill="url(#linearGradient-2)"></path>
        </g>
    </g>
</svg>