<?xml version="1.0" encoding="UTF-8"?>
                <svg width="209px" height="209px" viewBox="0 0 209 209" version="1.1" xmlns="http://www.w3.org/2000/svg" xmlns:xlink="http://www.w3.org/1999/xlink">
                    <!-- <title>iOS/professional</title> -->
                    <defs>
                        <linearGradient x1="85.000587%" y1="-17.3388344%" x2="43.9654275%" y2="71.1637853%" id="linearGradient-professional-1">
                            <stop stop-color="#27B3FF" offset="0%"></stop>
                            <stop stop-color="#117CFF" offset="100%"></stop>
                        </linearGradient>
                    </defs>
                    <g id="iOS/professional" stroke="none" stroke-width="1" fill="none" fill-rule="evenodd">
                        <path d="M86,32 L86,48 L123,48 L123,32 L137,32 L137,39.5 L160.5,39.5 C168.402759,39.5 174.828899,45.8221564 174.99664,53.6846885 L175,54 L175,145.579719 C175,151.153415 171.806654,156.222754 166.805173,158.637109 L166.496713,158.781591 L110.496713,184.218582 C106.809162,185.893585 102.595267,185.947618 98.8737592,184.380679 L98.5032874,184.218582 L42.5032874,158.781591 C37.4285821,156.476498 34.133742,151.472532 34.0039782,145.920317 L34,145.579719 L34,54 C34,46.0972412 40.3221564,39.6711012 48.1846885,39.5033605 L48.5,39.5 L72,39.5 L72,32 L86,32 Z M137,144 L123,144 L123,117 L86,117 L86,144 L72,144 L72,48.5 L48.5,48.5 C45.5365209,48.5 43.1204609,50.84378 43.0043672,53.7787929 L43,54 L43,145.579719 C43,147.657125 44.1695201,149.549818 46.0100648,150.483851 L46.2253849,150.587326 L102.225385,176.024316 C103.585714,176.642222 105.134881,176.678569 106.517427,176.133358 L106.774615,176.024316 L162.774615,150.587326 C164.66604,149.72818 165.905613,147.880609 165.994838,145.818556 L166,145.579719 L166,54 C166,51.0365209 163.65622,48.6204609 160.721207,48.5043672 L160.5,48.5 L137,48.5 L137,144 Z M123,88 L86,88 L86,106 L123,106 L123,88 Z M123,59 L86,59 L86,77 L123,77 L123,59 Z" id="ladder" fill="url(#linearGradient-professional-1)" fill-rule="nonzero"></path>
                    </g>
                </svg>