<?xml version="1.0" encoding="UTF-8"?>
<svg width="50px" height="50px" viewBox="0 0 50 50" version="1.1" xmlns="http://www.w3.org/2000/svg" xmlns:xlink="http://www.w3.org/1999/xlink">
    <!-- Generator: Sketch 63.1 (92452) - https://sketch.com -->
    <title>Web Study/app icon/professionals-webstudy</title>
    <desc>Created with Sketch.</desc>
    <defs>
        <path d="M47,3 L47,46 L3,46 L3,3 L47,3 Z M30.6220096,7.89473684 L19.3779904,7.89473684 L19.3779904,12.9186603 L30.6220096,12.9186603 L30.6220096,7.89473684 Z" id="path-1"></path>
        <linearGradient x1="88.6884668%" y1="-17.3388344%" x2="43.3295873%" y2="71.1637853%" id="linearGradient-3">
            <stop stop-color="#FFFFFF" offset="0%"></stop>
            <stop stop-color="#DFE3E7" offset="100%"></stop>
        </linearGradient>
        <linearGradient x1="79.3003241%" y1="-17.0806407%" x2="47.7253388%" y2="70.7888024%" id="linearGradient-4">
            <stop stop-color="#FFFFFF" offset="0%"></stop>
            <stop stop-color="#DFE3E7" offset="100%"></stop>
        </linearGradient>
    </defs>
    <g id="Web-Study/app-icon/professionals-webstudy" stroke="none" stroke-width="1" fill="none" fill-rule="evenodd" opacity="0.7">
        <g id="Group">
            <g id="D02-pocket-scaled-up">
                <mask id="mask-2" fill="white">
                    <use xlink:href="#path-1"></use>
                </mask>
                <g id="Combined-Shape"></g>
                <path d="M38.3971292,9.44976077 L11.6028708,9.44976077 C9.68705051,9.44976077 8.13397129,11.00284 8.13397129,12.9186603 L8.13397129,34.827684 C8.13397129,36.1883168 8.92942983,37.4233147 10.1682506,37.9860267 L23.5653798,44.0714311 C24.4769751,44.4855069 25.5230249,44.4855069 26.4346202,44.0714311 L39.8317494,37.9860267 C41.0705702,37.4233147 41.8660287,36.1883168 41.8660287,34.827684 L41.8660287,12.9186603 C41.8660287,11.00284 40.3129495,9.44976077 38.3971292,9.44976077 Z M11.6028708,11.6028708 L38.3971292,11.6028708 C39.1238196,11.6028708 39.7129187,12.1919698 39.7129187,12.9186603 L39.7129187,34.827684 C39.7129187,35.3437861 39.411193,35.8122335 38.9412955,36.025676 L25.5441663,42.1110805 C25.1983888,42.2681437 24.8016112,42.2681437 24.4558337,42.1110805 L11.0587045,36.025676 C10.588807,35.8122335 10.2870813,35.3437861 10.2870813,34.827684 L10.2870813,12.9186603 C10.2870813,12.1919698 10.8761804,11.6028708 11.6028708,11.6028708 Z" id="D02" fill="url(#linearGradient-3)" fill-rule="nonzero" mask="url(#mask-2)"></path>
            </g>
            <path d="M20.5741627,25.3588517 L29.4248804,25.3585024 L29.4248804,21.0525024 L20.5741627,21.0526316 L20.5741627,25.3588517 Z M20.5741627,18.4210526 L29.4248804,18.4205024 L29.4248804,14.1145024 L20.5741627,14.1148325 L20.5741627,18.4210526 Z M20.5741627,34.4497608 L17.2248804,34.4497608 L17.2248804,7.65550239 L20.5741627,7.65550239 L20.5741627,11.4832536 L29.4248804,11.4825024 L29.4258373,7.65550239 L32.7751196,7.65550239 L32.7751196,34.4497608 L29.4258373,34.4497608 L29.4248804,27.9895024 L20.5741627,27.9904306 L20.5741627,34.4497608 Z" id="Combined-Shape" fill="url(#linearGradient-4)"></path>
        </g>
    </g>
</svg>