<?xml version="1.0" encoding="UTF-8"?>
<svg width="50px" height="50px" viewBox="0 0 50 50" version="1.1" xmlns="http://www.w3.org/2000/svg" xmlns:xlink="http://www.w3.org/1999/xlink">
    <!-- Generator: Sketch 63.1 (92452) - https://sketch.com -->
    <title>Web Study/app icon/auto-webstudy</title>
    <desc>Created with Sketch.</desc>
    <defs>
        <path d="M0,0.9 L37,0.9 L37,41.9 L0,41.9 L0,17.53 L6,17.53 L6,11.93 L0,11.93 L0,0.9 Z" id="path-1"></path>
        <linearGradient x1="88.6884668%" y1="-17.3388344%" x2="43.3295873%" y2="71.1637853%" id="linearGradient-3">
            <stop stop-color="#FFFFFF" offset="0%"></stop>
            <stop stop-color="#DFE3E7" offset="100%"></stop>
        </linearGradient>
        <path d="M30.4019139,3.55271368e-15 L3.6076555,3.55271368e-15 C1.6918352,3.55271368e-15 0.138755981,1.55307922 0.138755981,3.46889952 L0.138755981,25.3779232 C0.138755981,26.738556 0.934214523,27.9735539 2.17303526,28.5362659 L15.5701644,34.6216704 C16.4817598,35.0357461 17.5278096,35.0357461 18.4394049,34.6216704 L31.8365341,28.5362659 C33.0753549,27.9735539 33.8708134,26.738556 33.8708134,25.3779232 L33.8708134,3.46889952 C33.8708134,1.55307922 32.3177342,3.55271368e-15 30.4019139,3.55271368e-15 Z" id="path-4"></path>
        <linearGradient x1="114.702776%" y1="23.0846761%" x2="48.0286024%" y2="63.0778181%" id="linearGradient-6">
            <stop stop-color="#FFFFFF" offset="0%"></stop>
            <stop stop-color="#DFE3E7" offset="100%"></stop>
        </linearGradient>
    </defs>
    <g id="Web-Study/app-icon/auto-webstudy" stroke="none" stroke-width="1" fill="none" fill-rule="evenodd" opacity="0.7">
        <g id="D02-pocket-scaled-up" transform="translate(5.240000, 5.000000)">
            <mask id="mask-2" fill="white">
                <use xlink:href="#path-1"></use>
            </mask>
            <g id="mask" opacity="0.502487909"></g>
            <path d="M33.1578947,4.44976077 L6.36363636,4.44976077 C4.44781606,4.44976077 2.89473684,6.00283998 2.89473684,7.91866029 L2.89473684,29.827684 C2.89473684,31.1883168 3.69019538,32.4233147 4.92901612,32.9860267 L18.3261453,39.0714311 C19.2377407,39.4855069 20.2837904,39.4855069 21.1953858,39.0714311 L34.592515,32.9860267 C35.8313357,32.4233147 36.6267943,31.1883168 36.6267943,29.827684 L36.6267943,7.91866029 C36.6267943,6.00283998 35.073715,4.44976077 33.1578947,4.44976077 Z M6.36363636,6.60287081 L33.1578947,6.60287081 C33.8845852,6.60287081 34.4736842,7.19196983 34.4736842,7.91866029 L34.4736842,29.827684 C34.4736842,30.3437861 34.1719586,30.8122335 33.702061,31.025676 L20.3049318,37.1110805 C19.9591543,37.2681437 19.5623768,37.2681437 19.2165993,37.1110805 L5.81947006,31.025676 C5.34957254,30.8122335 5.04784689,30.3437861 5.04784689,29.827684 L5.04784689,7.91866029 C5.04784689,7.19196983 5.6369459,6.60287081 6.36363636,6.60287081 Z" id="D02" fill="url(#linearGradient-3)" fill-rule="nonzero" mask="url(#mask-2)"></path>
            <g id="Group" mask="url(#mask-2)">
                <g transform="translate(2.755981, 4.449761)">
                    <mask id="mask-5" fill="white">
                        <use xlink:href="#path-4"></use>
                    </mask>
                    <g id="Path" stroke="none" fill="none" fill-rule="nonzero"></g>
                    <path d="M12.1676359,20.1775316 C14.4256415,20.1775316 16.2561167,22.0068403 16.2561167,24.263407 C16.2561167,26.5199736 14.4256415,28.3492823 12.1676359,28.3492823 C9.90963027,28.3492823 8.07915507,26.5199736 8.07915507,24.263407 C8.07915507,22.0068403 9.90963027,20.1775316 12.1676359,20.1775316 Z M12.1676359,23.1881766 C11.5734239,23.1881766 11.0917199,23.6695736 11.0917199,24.263407 C11.0917199,24.8572403 11.5734239,25.3386373 12.1676359,25.3386373 C12.7618479,25.3386373 13.2435519,24.8572403 13.2435519,24.263407 C13.2435519,23.6695736 12.7618479,23.1881766 12.1676359,23.1881766 Z M21.8587247,4.4261919 C22.2746505,4.4305217 22.6083128,4.77099134 22.6040219,5.18665211 C22.5996476,5.60231289 22.2589609,5.93576253 21.8430351,5.93143273 C20.9365476,5.92199617 20.3766265,6.1346684 19.390212,7.19628398 C18.5099381,8.14366718 16.5572706,10.178074 13.5280714,13.3039267 C16.2802568,14.0127514 18.3488991,14.5119486 19.7316824,14.801727 C22.2475312,15.3289526 23.3298058,16.4550125 23.5698471,18.6155055 L23.763835,20.7910837 C23.2368886,20.7379275 22.567709,20.7151468 21.7432883,20.7151468 C21.5650247,20.7151468 21.4205135,20.8595659 21.4205135,21.0377159 C21.4205135,21.2158659 21.5650247,21.360285 21.7432883,21.360285 C22.6993506,21.360285 23.4471282,21.4005842 23.954612,21.4624937 C24.3071402,21.6924546 24.5406699,22.0912694 24.5406699,22.544628 L24.5406699,22.9715409 C24.5406699,23.6850188 23.9622817,24.263407 23.2488038,24.263407 L18.6222825,24.2630072 L18.6231319,24.3667945 C18.6231319,24.7230945 18.3341095,25.0119327 17.9775823,25.0119327 C17.6210551,25.0119327 17.3320327,24.7230945 17.3320327,24.3667945 L17.3282619,24.2625368 L17.324998,24.1006467 L17.3039666,23.8366982 C17.0317583,21.2818251 14.8206051,19.3173473 12.1676359,19.3173473 C9.38584761,19.3173473 7.12202873,21.4663047 7.00776437,24.1535542 L7.00323907,24.3667945 C7.00323907,24.7230945 6.71421667,25.0119327 6.35768947,25.0119327 C6.00116227,25.0119327 5.71213987,24.7230945 5.71213987,24.3667945 L5.71426188,24.2625368 L-6.44494408,24.263407 C-7.15842199,24.263407 -7.73681011,23.6850188 -7.73681011,22.9715409 L-7.73681011,22.544628 C-7.73681011,22.3942232 -7.71110725,22.2498217 -7.6638543,22.1155762 L-7.75473513,22.1126975 C-8.17790452,22.1009503 -8.47541643,21.6921767 -8.35625949,21.2862187 L-6.327,14.3708304 L-19,14.3712877 L-16.9557596,6.19953705 L-16.875,6.19892187 L-16.8190539,5.66192187 L6.24370897,5.66192187 C6.73653916,5.66192187 7.2029113,5.87280868 7.52773523,6.23639089 L7.63060947,6.36316053 L12.1729011,12.5384967 C15.3504009,9.26079699 17.3897459,7.13701726 18.2864181,6.17198564 C19.5789072,4.7809613 20.5488407,4.41255597 21.8587247,4.4261919 Z M-1.245,14.3708304 L-5.62745576,14.3710076 C-5.54827609,14.6151947 -5.46107133,14.8002606 -5.36979492,14.8013799 L-1.245,14.3708304 Z M6.02119268,7.48981347 L-15.71,7.48892187 L-16.286,13.0809219 L10.2631007,13.0810113 L6.37065681,7.66888833 C6.28980023,7.55646391 6.15973206,7.48981347 6.02119268,7.48981347 Z" id="Combined-Shape" stroke="none" fill="url(#linearGradient-6)" fill-rule="nonzero" mask="url(#mask-5)"></path>
                </g>
            </g>
        </g>
    </g>
</svg>