<?xml version="1.0" encoding="UTF-8"?>
            <svg width="209px" height="209px" viewBox="0 0 209 209" version="1.1" xmlns="http://www.w3.org/2000/svg" xmlns:xlink="http://www.w3.org/1999/xlink">
                <!-- <title>iOS/automotive</title> -->
                <defs>
                    <linearGradient x1="118.268798%" y1="-37.2743934%" x2="24.4008354%" y2="82.5071923%" id="linearGradient-automotive">
                        <stop stop-color="#FF6E88" offset="0%"></stop>
                        <stop stop-color="#FF6363" offset="100%"></stop>
                    </linearGradient>
                </defs>
                <g id="iOS/automotive" stroke="none" stroke-width="1" fill="none" fill-rule="evenodd">
                    <path d="M160.5,39.5 C168.402759,39.5 174.828899,45.8221564 174.99664,53.6846885 L175,54 L175,145.579719 C175,151.153415 171.806654,156.222754 166.805173,158.637109 L166.496713,158.781591 L110.496713,184.218582 C106.809162,185.893585 102.595267,185.947618 98.8737592,184.380679 L98.5032874,184.218582 L42.5032874,158.781591 C37.4285821,156.476498 34.133742,151.472532 34.0039782,145.920317 L34,145.579719 L34,94.179 L39,94.179 L39,94.178 L76.319761,94.1786272 L60.0493455,71.5559532 C59.711365,71.0860192 59.16768,70.8074203 58.5885854,70.8074203 L43,70.806 L43,70.807 L34,70.807 L34,54 C34,46.0972412 40.3221564,39.6711012 48.1846885,39.5033605 L48.5,39.5 L160.5,39.5 Z M160.5,48.5 L48.5,48.5 C45.5365209,48.5 43.1204609,50.84378 43.0043672,53.7787929 L43,54 L43,63.165 L59.5187035,63.1668334 C61.716069,63.1668334 63.7876025,64.1697923 65.1494546,65.8805068 L65.3159476,66.098011 L84.30672,91.9067965 C97.5863845,78.2083519 106.109513,69.3323278 109.857228,65.2989 C115.043728,59.7169975 118.987651,58.074518 124.139075,58.002479 L124.462633,58 L124.789469,58.0014822 C126.528039,58.0195807 127.922747,59.4427438 127.904812,61.1802058 C127.886527,62.9176679 126.462457,64.3114874 124.723887,64.2933888 C120.934769,64.253944 118.594299,65.1429139 114.471086,69.580467 C110.791335,73.5407508 102.628476,82.0453024 89.9652096,95.1126103 C101.468767,98.0726478 110.117494,100.159756 115.898432,101.371219 C126.414681,103.575022 130.938588,108.281952 131.941961,117.312813 L132.746358,126.406077 C130.544715,126.184351 127.749649,126.089314 124.306945,126.089314 C123.561803,126.089314 122.957746,126.692985 122.957746,127.437652 C122.957746,128.182319 123.561803,128.785991 124.306945,128.785991 C128.304082,128.785991 131.430241,128.954509 133.551546,129.213378 C135.025365,130.177056 136,131.842981 136,133.736545 L136,135.521041 C136,138.503379 133.582338,140.921041 130.6,140.921041 L111.261163,140.920704 C111.263514,141.064733 111.264691,141.208902 111.264691,141.353201 C111.264691,142.842535 110.056578,144.049879 108.566294,144.049879 C107.07601,144.049879 105.867897,142.842535 105.867897,141.353201 L105.862155,140.920384 L105.860536,140.795888 C105.845824,140.239611 105.809087,139.686525 105.750581,139.137399 C104.61275,128.458029 95.3701294,120.246512 84.2807179,120.246512 C72.6152534,120.246512 63.1289219,129.287324 62.7081049,140.570863 L62.6979852,140.920681 C62.695026,141.064509 62.6935393,141.208687 62.6935393,141.353201 C62.6935393,142.842535 61.4854257,144.049879 59.995142,144.049879 C58.5048583,144.049879 57.2967447,142.842535 57.2967447,141.353201 L57.3011547,140.920384 L43,140.919 L43,145.579719 C43,147.657125 44.1695201,149.549818 46.0100648,150.483851 L46.2253849,150.587326 L102.225385,176.024316 C103.585714,176.642222 105.134881,176.678569 106.517427,176.133358 L106.774615,176.024316 L162.774615,150.587326 C164.66604,149.72818 165.905613,147.880609 165.994838,145.818556 L166,145.579719 L166,54 C166,51.0365209 163.65622,48.6204609 160.721207,48.5043672 L160.5,48.5 Z M84.2807179,123.842082 C93.7191813,123.842082 101.370568,131.488593 101.370568,140.921041 C101.370568,150.35349 93.7191813,158 84.2807179,158 C74.8422545,158 67.1908682,150.35349 67.1908682,140.921041 C67.1908682,131.488593 74.8422545,123.842082 84.2807179,123.842082 Z M84.2807179,136.426578 C81.7969118,136.426578 79.7833891,138.438818 79.7833891,140.921041 C79.7833891,143.403264 81.7969118,145.415504 84.2807179,145.415504 C86.7645241,145.415504 88.7780468,143.403264 88.7780468,140.921041 C88.7780468,138.438818 86.7645241,136.426578 84.2807179,136.426578 Z" id="car" fill="url(#linearGradient-automotive)" fill-rule="nonzero"></path>
                </g>
            </svg>