<?xml version="1.0" encoding="UTF-8"?>
<svg width="50px" height="50px" viewBox="0 0 50 50" version="1.1" xmlns="http://www.w3.org/2000/svg" xmlns:xlink="http://www.w3.org/1999/xlink">
    <!-- Generator: Sketch 63.1 (92452) - https://sketch.com -->
    <title>Web Study/app icon/fitness-webstudy</title>
    <desc>Created with Sketch.</desc>
    <defs>
        <linearGradient x1="88.6884668%" y1="-17.3388344%" x2="43.3295873%" y2="71.1637853%" id="linearGradient-1">
            <stop stop-color="#FFFFFF" offset="0%"></stop>
            <stop stop-color="#DFE3E7" offset="100%"></stop>
        </linearGradient>
        <path d="M2.51196172,0 L29.3062201,0 C30.6274755,-2.42710676e-16 31.6985646,1.07108912 31.6985646,2.3923445 L31.6985646,28.6075883 C31.6985646,29.5459557 31.1499725,30.3976784 30.2956134,30.7857557 L16.8984842,36.8711601 C16.2697977,37.1567296 15.5483841,37.1567296 14.9196976,36.8711601 L1.52256845,30.7857557 C0.668209323,30.3976784 0.119617225,29.5459557 0.119617225,28.6075883 L0.119617225,2.3923445 C0.119617225,1.07108912 1.19070634,2.42710676e-16 2.51196172,0 Z" id="path-2"></path>
        <linearGradient x1="109.127113%" y1="-17.0806407%" x2="45.4098066%" y2="70.7888024%" id="linearGradient-4">
            <stop stop-color="#FFFFFF" offset="0%"></stop>
            <stop stop-color="#DFE3E7" offset="100%"></stop>
        </linearGradient>
    </defs>
    <g id="Web-Study/app-icon/fitness-webstudy" stroke="none" stroke-width="1" fill="none" fill-rule="evenodd" opacity="0.7">
        <g id="Group" transform="translate(7.894737, 6.220096)">
            <path d="M30.4984211,3.22966507 L3.70416268,3.22966507 C1.78834237,3.22966507 0.235263158,4.78274429 0.235263158,6.69856459 L0.235263158,28.6075883 C0.235263158,29.9682211 1.0307217,31.203219 2.26954243,31.765931 L15.6666716,37.8513354 C16.578267,38.2654112 17.6243168,38.2654112 18.5359121,37.8513354 L31.9330413,31.765931 C33.171862,31.203219 33.9673206,29.9682211 33.9673206,28.6075883 L33.9673206,6.69856459 C33.9673206,4.78274429 32.4142414,3.22966507 30.4984211,3.22966507 Z M3.70416268,5.38277512 L30.4984211,5.38277512 C31.2251115,5.38277512 31.8142105,5.97187413 31.8142105,6.69856459 L31.8142105,28.6075883 C31.8142105,29.1236904 31.5124849,29.5921379 31.0425874,29.8055803 L17.6454582,35.8909848 C17.2996806,36.048048 16.9029031,36.048048 16.5571256,35.8909848 L3.15999638,29.8055803 C2.69009886,29.5921379 2.38837321,29.1236904 2.38837321,28.6075883 L2.38837321,6.69856459 C2.38837321,5.97187413 2.97747222,5.38277512 3.70416268,5.38277512 Z" id="D02" fill="url(#linearGradient-1)" fill-rule="nonzero"></path>
            <g id="Group-2" transform="translate(0.956938, 0.000000)">
                <mask id="mask-3" fill="white">
                    <use xlink:href="#path-2"></use>
                </mask>
                <g id="mask"></g>
                <path d="M14.4657738,0.770207112 C15.3284606,1.1388604 16.8073523,2.24482028 17.916521,5.31693105 C18.70626,7.50430399 26.2969071,26.8217064 23.9553286,28.2963196 C21.6137501,29.7709328 21.1207863,29.7709328 19.5186536,29.4022795 C11.9913279,32.981849 4.24689817,31.7422872 0.293062061,30.9538077 C-0.939347655,30.7080389 -1.43231154,30.8309233 -1.43231154,30.8309233 C-1.43927564,29.6617667 -1.43231154,21.1230533 -1.43231154,20.3857467 C2.63464052,20.3857467 4.60649607,19.1569024 7.81076133,19.1569024 C11.0150266,19.1569024 12.7404002,20.6315156 14.5890148,20.9232538 C13.9728099,20.3857467 14.8354967,12.5671125 13.9728099,6.3000065 C10.0290988,6.3000065 10.0269433,6.04778973 9.53613493,4.57962447 C8.91993007,2.73635801 9.28965299,1.1388604 10.3988217,0.770207112 C10.856073,0.618230959 13.1258447,0.197613123 14.4657738,0.770207112 Z M12.6613352,27.3532029 L12.581532,27.3650875 C10.0032199,28.018792 6.19244068,27.9504589 3.67547723,27.3873853 C3.46079471,27.3393583 3.24782661,27.4744594 3.19979966,27.6891419 C3.15177272,27.9038244 3.28687375,28.1167925 3.50155627,28.1648195 C6.13324906,28.7535594 10.0684033,28.8241226 12.7773197,28.1373048 C12.9905616,28.0832395 13.1195998,27.8665442 13.0655345,27.6533023 C13.0114692,27.4400604 12.7947739,27.3110222 12.581532,27.3650875 Z" id="Combined-Shape" fill="url(#linearGradient-4)" mask="url(#mask-3)"></path>
            </g>
        </g>
    </g>
</svg>