<?xml version="1.0" encoding="UTF-8"?>
            <svg width="209px" height="209px" viewBox="0 0 209 209" version="1.1" xmlns="http://www.w3.org/2000/svg" xmlns:xlink="http://www.w3.org/1999/xlink">
                <!-- <title>iOS/fitness</title> -->
                <defs>
                    <linearGradient x1="83.2455385%" y1="-17.3388344%" x2="44.2680215%" y2="71.1637853%" id="linearGradient-fitness-1">
                        <stop stop-color="#27B3FF" offset="0%"></stop>
                        <stop stop-color="#117CFF" offset="100%"></stop>
                    </linearGradient>
                </defs>
                <g id="iOS/fitness" stroke="none" stroke-width="1" fill="none" fill-rule="evenodd">
                    <path d="M97.4669345,29.2194657 C100.096701,30.343248 104.09633,33.1061095 107.867424,39.5002665 L160.5,39.5 C168.508129,39.5 175,45.9918711 175,54 L175,54 L175,145.579719 C175,151.267164 171.674983,156.429455 166.496713,158.781591 L166.496713,158.781591 L110.496713,184.218582 C106.686244,185.949419 102.313756,185.949419 98.5032874,184.218582 L98.5032874,184.218582 L42.5032874,158.781591 C40.6545164,157.941821 39.0419735,156.743848 37.732637,155.291663 C37.7317757,155.291432 37.731445,155.29137 37.7311143,155.291308 C37.4418473,154.970318 37.1673754,154.636899 36.9084253,154.292174 C36.8821252,154.256045 36.8555861,154.220387 36.829213,154.184609 C36.7970273,154.142039 36.765455,154.098694 36.7341255,154.055179 C36.7024787,154.010159 36.6706887,153.965487 36.6391543,153.920638 C36.5311197,153.767986 36.4265803,153.61298 36.3250693,153.456014 C36.2997129,153.415868 36.274206,153.376013 36.2488943,153.336034 C36.1134943,153.123037 35.9839704,152.906083 35.8601488,152.685819 C35.8366926,152.643319 35.8129309,152.600562 35.7893841,152.557682 C35.7628451,152.510099 35.7371201,152.462608 35.7116582,152.414971 C35.6868192,152.367779 35.6618043,152.320365 35.6370501,152.272808 C35.6068815,152.21554 35.5773746,152.157898 35.5482501,152.100051 C35.5185234,152.040351 35.4889717,151.980654 35.4598272,151.920745 C35.4328766,151.865968 35.4065847,151.811029 35.3806348,151.755917 C35.3573652,151.705902 35.3341828,151.655944 35.3112816,151.605848 C35.28902,151.557717 35.2672422,151.509366 35.2457261,151.460887 C35.2220026,151.406893 35.1984726,151.353008 35.1752661,151.29897 C35.0277771,150.955964 34.8935232,150.606731 34.7727645,150.252037 C34.7597625,150.213499 34.7468661,150.175099 34.7341279,150.136637 C34.7177387,150.087483 34.7016007,150.037851 34.6857264,149.988118 C34.6679325,149.932058 34.650509,149.876316 34.6334172,149.820449 C34.6102045,149.744858 34.5876293,149.668831 34.5656686,149.592581 C34.5523249,149.545993 34.5391628,149.499425 34.5262302,149.452774 C34.5097428,149.39353 34.4938108,149.334597 34.4782451,149.275538 C34.4629057,149.217129 34.4477674,149.158205 34.4329945,149.099159 C34.4220932,149.055778 34.4115515,149.012794 34.4012034,148.969747 C34.3761472,148.865352 34.3521164,148.760268 34.3292429,148.654825 C34.3269802,148.64455 34.3247521,148.634223 34.3225351,148.623892 C34.3048157,148.54118 34.2878091,148.458421 34.2715167,148.375451 C34.256187,148.297509 34.2414765,148.219179 34.2274036,148.140669 C34.2103944,148.045669 34.1943503,147.950726 34.1792414,147.855534 C34.1754681,147.831846 34.1717268,147.807886 34.1680447,147.78391 L34.1792414,147.855534 C34.1638419,147.758509 34.1494138,147.661226 34.1359654,147.563696 C34.1291709,147.514481 34.1226344,147.465201 34.1163484,147.41586 C34.106409,147.337798 34.0970752,147.259454 34.0883745,147.180963 C34.0833933,147.136066 34.0786223,147.091104 34.0740594,147.046094 C34.0669752,146.976171 34.0604151,146.906428 34.0543559,146.836577 C34.0487961,146.772532 34.04362,146.707857 34.0388743,146.643093 C34.0347088,146.586194 34.0309162,146.529912 34.0274495,146.473565 C34.0237252,146.413076 34.0203536,146.35203 34.0173652,146.290912 C34.0058191,146.054661 34,145.817649 34,145.579719 L34,145.579719 L34,54 C34,45.9918711 40.4918711,39.5 48.5,39.5 L48.5,39.5 L75.6761135,39.4998375 C75.2783682,34.3574732 77.016885,30.3662018 80.4670748,29.2194657 C82.3783853,28.5842054 91.8660308,26.8260229 97.4669345,29.2194657 Z M160.5,48.5 L111.991,48.5 L111.998549,48.5204032 C115.822593,58.9754673 146.823194,138.176372 137.133274,144.278616 C127.345476,150.442499 125.284887,150.442499 118.587972,148.901528 C99.6189746,157.922108 80.3201404,159.621193 64.3622077,158.825886 L102.225385,176.024316 C103.670735,176.680841 105.329265,176.680841 106.774615,176.024316 L106.774615,176.024316 L162.774615,150.587326 C164.738787,149.695136 166,147.737026 166,145.579719 L166,145.579719 L166,54 C166,50.9624339 163.537566,48.5 160.5,48.5 L160.5,48.5 Z M89.5908036,140.386066 C78.8134593,143.11855 62.884402,142.832918 52.3634948,140.479271 C51.4661219,140.278518 50.5759152,140.84324 50.3751626,141.740613 C50.17441,142.637986 50.7391323,143.528193 51.6365052,143.728945 C62.6369811,146.189878 79.0859259,146.484833 90.4091964,143.613934 C91.3005476,143.387941 91.8399271,142.482155 91.6139341,141.590804 C91.3879412,140.699452 90.4821548,140.160073 89.5908036,140.386066 Z M78.1170517,48.5008212 L48.5,48.5 C45.4624339,48.5 43,50.9624339 43,54 L43,54 L43.0016225,110.312438 C52.7718273,108.839446 59.8245984,106.075852 69.6489824,106.075852 C83.0428111,106.075852 90.2548728,112.239735 97.9820817,113.459201 C95.4063454,111.212421 99.0123762,78.5305301 95.4063454,52.3340272 C82.5519269,52.3340272 79.7156244,51.6929765 78.1170517,48.5008212 Z" id="flex" fill="url(#linearGradient-fitness-1)" fill-rule="nonzero"></path>
                </g>
            </svg>