<?xml version="1.0" encoding="UTF-8"?>
<svg width="50px" height="50px" viewBox="0 0 50 50" version="1.1" xmlns="http://www.w3.org/2000/svg" xmlns:xlink="http://www.w3.org/1999/xlink">
    <!-- Generator: Sketch 63.1 (92452) - https://sketch.com -->
    <title>Web Study/app icon/medical-webstudy</title>
    <desc>Created with Sketch.</desc>
    <defs>
        <linearGradient x1="88.6872374%" y1="-17.3388344%" x2="43.3297993%" y2="71.1637853%" id="linearGradient-1">
            <stop stop-color="#FFFFFF" offset="0%"></stop>
            <stop stop-color="#DFE3E7" offset="100%"></stop>
        </linearGradient>
        <path d="M29.3971292,-0.550239234 C31.3129495,-0.550239234 32.8660287,1.00283998 32.8660287,2.91866029 L32.8660287,2.91866029 L32.8660287,24.827684 C32.8660287,26.1883168 32.0705702,27.4233147 30.8317494,27.9860267 L30.8317494,27.9860267 L17.4346202,34.0714311 C16.5230249,34.4855069 15.4769751,34.4855069 14.5653798,34.0714311 L14.5653798,34.0714311 L1.16825057,27.9860267 C-0.0705701657,27.4233147 -0.866028708,26.1883168 -0.866028708,24.827684 L-0.866028708,24.827684 L-0.866028708,2.91866029 C-0.866028708,1.00283998 0.687050509,-0.550239234 2.60287081,-0.550239234 L2.60287081,-0.550239234 L3.43997129,-0.550794258 L3.43997129,1.60220574 L2.60287081,1.60287081 C1.92159851,1.60287081 1.36125618,2.12063362 1.29387461,2.78412846 L1.28708134,2.91866029 L1.28708134,24.827684 C1.28708134,25.3437861 1.58880699,25.8122335 2.05870451,26.025676 L2.05870451,26.025676 L15.4558337,32.1110805 C15.8016112,32.2681437 16.1983888,32.2681437 16.5441663,32.1110805 L16.5441663,32.1110805 L29.9412955,26.025676 C30.411193,25.8122335 30.7129187,25.3437861 30.7129187,24.827684 L30.7129187,24.827684 L30.7129187,2.91866029 C30.7129187,2.19196983 30.1238196,1.60287081 29.3971292,1.60287081 L29.3971292,1.60287081 L18.5109713,1.60220574 L18.5109713,-0.550794258 Z" id="path-2"></path>
        <path d="M1.18679421,0 L32.0667943,0 C32.7222426,-1.20403908e-16 33.2535885,0.531345869 33.2535885,1.18679421 L33.2535885,31.1726957 C33.2535885,31.6385556 32.9810331,32.0613313 32.5567211,32.2536454 L17.1774865,39.2240899 C16.8315134,39.3808978 16.4313847,39.3626241 16.1011447,39.1749337 L0.60037918,30.3651461 C0.229254424,30.1542191 7.18411144e-16,29.7602294 0,29.3333526 L0,1.18679421 C-8.02692719e-17,0.531345869 0.531345869,-1.01640697e-16 1.18679421,0 Z" id="path-4"></path>
        <linearGradient x1="75.2038786%" y1="106.783763%" x2="45.9208781%" y2="23.5189631%" id="linearGradient-6">
            <stop stop-color="#FFFFFF" offset="0%"></stop>
            <stop stop-color="#DFE3E7" offset="100%"></stop>
        </linearGradient>
    </defs>
    <g id="Web-Study/app-icon/medical-webstudy" stroke="none" stroke-width="1" fill="none" fill-rule="evenodd" opacity="0.7">
        <g id="Group-2" transform="translate(8.133971, 3.301435)">
            <g id="D02-pocket-scaled-up" transform="translate(0.866029, 6.698565)">
                <mask id="mask-3" fill="white">
                    <use xlink:href="#path-2"></use>
                </mask>
                <use id="Combined-Shape" fill="url(#linearGradient-1)" fill-rule="nonzero" xlink:href="#path-2"></use>
            </g>
            <g id="editable-copy" transform="translate(17.000000, 20.000000) scale(1, -1) translate(-17.000000, -20.000000) ">
                <g id="Group">
                    <mask id="mask-5" fill="white">
                        <use xlink:href="#path-4"></use>
                    </mask>
                    <g id="mask" transform="translate(16.626794, 19.736842) scale(1, -1) translate(-16.626794, -19.736842) "></g>
                    <path d="M25.2361704,6.99063177 L25.2392344,7.29717128 L25.2395431,9.25680102 C27.5094223,9.8411752 29.1866029,11.9017578 29.1866029,14.354067 C29.1866029,17.2608288 26.8302068,19.6172249 23.923445,19.6172249 C21.0166831,19.6172249 18.6602871,17.2608288 18.6602871,14.354067 C18.6602871,11.8163499 20.4563262,9.69812024 22.8466208,9.20116161 L22.84689,7.29717128 C22.84689,4.75934636 22.1518626,2.8898942 21.0513971,1.78842291 C20.2504704,0.986764236 19.2347818,0.591907519 18.1159743,0.642253858 C15.5177988,0.759171755 13.3814494,3.21330893 13.2811914,7.01649605 L13.277512,7.29717128 L13.2783742,19.1973058 C17.2717986,19.6070548 19.3874719,22.1827944 19.8517615,27.4060532 L19.8973799,27.9331571 L19.9519472,28.6078125 C20.1604265,31.2976196 20.1951191,33.195266 20.1237177,34.4671633 L20.1104041,34.6759742 L20.0952508,34.8657084 C20.0788339,35.9191588 19.6063306,36.701214 18.7184359,37.0662752 L18.620907,37.1048142 L18.5218992,37.1404465 C18.1116541,37.2802673 17.7191661,37.3140719 16.9381295,37.3196586 L16.6267943,37.3205852 C15.9661666,37.3205852 15.430622,36.7850406 15.430622,36.1244129 C15.430622,35.4811702 15.9383509,34.9565139 16.5749068,34.9293458 L16.6430276,34.9282409 L16.8607277,34.9275673 L17.0700205,34.9251694 C17.3917714,34.9196727 17.5821783,34.906536 17.7013555,34.883664 L17.7031173,34.8354029 L17.7033493,34.8086128 C17.7033493,34.7600651 17.7270528,34.4770264 17.735134,34.3330737 L17.7426392,34.1873431 L17.7519865,33.9567412 C17.798308,32.6088227 17.7300971,30.5573217 17.4688126,27.6178709 C17.0663602,23.0902808 15.5614741,21.540469 12.1127545,21.5311432 C8.66307432,21.5404271 7.15815297,23.0902196 6.75569507,27.6178709 C6.50747478,30.4103492 6.43350349,32.4014528 6.4664418,33.7492535 L6.47252122,33.9567412 L6.48186853,34.1873431 L6.48937372,34.3330737 C6.49610804,34.4530343 6.5136912,34.6695824 6.51936519,34.7665276 L6.52115842,34.8086128 L6.52139044,34.8354029 L6.5231522,34.883664 C6.62246652,34.902724 6.77124595,34.9150234 7.0042788,34.9217747 L7.15448723,34.9251694 L7.36377996,34.9275673 L7.58148006,34.9282409 L7.64960091,34.9293458 C8.28615681,34.9565139 8.79388569,35.4811702 8.79388569,36.1244129 C8.79388569,36.7437514 8.32319223,37.2531535 7.72001511,37.3144095 L7.59771344,37.3205852 L7.28637825,37.3196586 C6.5834453,37.3146306 6.19523668,37.2867461 5.82555564,37.1792901 L5.70260852,37.1404465 L5.60360074,37.1048142 L5.50607179,37.0662752 C4.67367053,36.7240303 4.20635935,36.0152868 4.13766988,35.0600144 L4.12925688,34.8657084 L4.11410362,34.6759742 L4.10079,34.4671633 C4.03335538,33.265927 4.06055389,31.5065379 4.23941149,29.0488074 L4.27256051,28.6078125 L4.32712779,27.9331571 L4.37274617,27.4060532 C4.83467728,22.2093283 6.93125667,19.6332923 10.8854197,19.203718 L10.8851675,7.29717128 C10.8851675,2.1141956 14.0006991,-1.56732428 18.0084276,-1.74767206 C22.0620185,-1.93008365 25.1260897,1.51050865 25.2361704,6.99063177 Z M23.923445,11.1842105 C22.1727816,11.1842105 20.7535885,12.6034036 20.7535885,14.354067 C20.7535885,16.1047304 22.1727816,17.5239234 23.923445,17.5239234 C25.6741084,17.5239234 27.0933014,16.1047304 27.0933014,14.354067 C27.0933014,12.6034036 25.6741084,11.1842105 23.923445,11.1842105 Z M23.923445,11.7822967 C25.3437945,11.7822967 26.4952153,12.9337174 26.4952153,14.354067 C26.4952153,15.7744165 25.3437945,16.9258373 23.923445,16.9258373 C22.5030954,16.9258373 21.3516746,15.7744165 21.3516746,14.354067 C21.3516746,12.9337174 22.5030954,11.7822967 23.923445,11.7822967 Z" id="stethoscope" fill="url(#linearGradient-6)" fill-rule="nonzero" mask="url(#mask-5)"></path>
                </g>
            </g>
        </g>
    </g>
</svg>