<?xml version="1.0" encoding="UTF-8"?>
            <svg width="209px" height="209px" viewBox="0 0 209 209" version="1.1" xmlns="http://www.w3.org/2000/svg" xmlns:xlink="http://www.w3.org/1999/xlink">
                <!-- <title>iOS/medical</title> -->
                <defs>
                    <linearGradient x1="82.0144568%" y1="-17.3388344%" x2="44.4802765%" y2="71.1637853%" id="linearGradient-medical-1">
                        <stop stop-color="#27B3FF" offset="0%"></stop>
                        <stop stop-color="#117CFF" offset="100%"></stop>
                    </linearGradient>
                </defs>
                <g id="iOS/medical" stroke="none" stroke-width="1" fill="none" fill-rule="evenodd">
                    <path d="M103.5,25 L104.801381,25.0038731 C107.930084,25.0262523 109.567178,25.1569582 111.207449,25.6822078 L111.421539,25.7529796 L111.835391,25.9019228 L112.243062,26.0630157 C115.859298,27.5498445 117.827099,30.6914675 117.989112,34.9249077 L117.998148,35.2613847 L118.061489,36.0544739 L118.11714,36.9273036 C118.16193,37.7251717 118.196733,38.5819489 118.220591,39.4999863 L160.5,39.5 C168.402759,39.5 174.828899,45.8221564 174.99664,53.6846885 L175,54 L175,145.579719 C175,151.153415 171.806654,156.222754 166.805173,158.637109 L166.496713,158.781591 L110.496713,184.218582 C106.809162,185.893585 102.595267,185.947618 98.8737592,184.380679 L98.5032874,184.218582 L42.5032874,158.781591 C37.4285821,156.476498 34.133742,151.472532 34.0039782,145.920317 L34,145.579719 L34,54 C34,46.0972412 40.3221564,39.6711012 48.1846885,39.5033605 L48.5,39.5 L51.0378507,39.4999863 C51.0583266,38.7121036 51.0868635,37.969342 51.1228567,37.2702155 L51.1413022,36.9273036 L51.1969531,36.0544739 L51.2602938,35.2613847 L51.2693298,34.9249077 C51.4269647,30.8058848 53.2940959,27.7204595 56.7257873,26.1871845 L57.0153801,26.0630157 L57.4230511,25.9019228 L57.8369036,25.7529796 L58.0509929,25.6822078 C59.6199482,25.1797951 61.1859966,25.0383638 64.0573056,25.00743 L64.4570611,25.0038731 L65.7584422,25 L65.9753318,25.0046195 C68.6361355,25.1181819 70.7584422,27.3112453 70.7584422,30 C70.7584422,32.6140671 68.7524038,34.7595988 66.195785,34.9811372 L65.9753318,34.9953805 L65.6905866,35 L64.7806002,35.0028145 L63.9057566,35.0128379 L63.6258715,35.0182534 C62.5392117,35.0418959 61.8427255,35.0894609 61.3781737,35.1664632 L61.2667762,35.1863303 L61.259412,35.3880621 L61.2584422,35.5000445 L61.2569856,35.5579629 C61.2456514,35.8431007 61.1710377,36.7575847 61.1345207,37.3383924 L61.1255822,37.487798 L61.0942105,38.096952 L61.0551387,39.0608678 L61.0443037,39.3956951 C60.8730063,45.0328793 61.1680512,53.5113608 62.2388054,65.5573455 C63.9211289,84.4834849 70.2120207,90.9614419 84.6304583,90.9998696 C99.0467129,90.9611417 105.337352,84.4830465 107.019637,65.5573455 C108.090391,53.5113608 108.385436,45.0328793 108.214138,39.3956951 L108.203304,39.0608678 L108.164232,38.096952 L108.13286,37.487798 C108.101494,36.9290557 108.013821,35.8690223 108.001457,35.5579629 L108,35.5000445 L107.99903,35.3880621 L107.991666,35.1863303 C107.529088,35.0975546 106.809785,35.0438661 105.632571,35.0182534 L105.352686,35.0128379 L104.477842,35.0028145 L103.567856,35 L103.28311,34.9953805 C100.622307,34.8818181 98.5,32.6887547 98.5,30 C98.5,27.2385763 100.738576,25 103.5,25 Z M117.453779,60.7062165 L117.399139,61.4193897 L117.171048,64.2394493 L116.980363,66.4427434 C115.05895,88.058637 106.371492,98.8271187 89.9997454,100.701468 L89.5012789,100.755546 L89.5,150.49787 L89.5027228,150.993052 C89.6278623,162.346864 94.05534,170.910143 100.458329,175.222335 L102.225385,176.024316 C103.585714,176.642222 105.134881,176.678569 106.517427,176.133358 L106.774615,176.024316 L126.33169,167.14205 C128.284495,162.902729 129.432606,157.514642 129.497126,151.073721 L129.5,150.49787 L129.500323,142.539492 C119.508169,140.462759 112,131.608216 112,121.000046 C112,108.849782 121.849736,99.000046 134,99.000046 C146.150264,99.000046 156,108.849782 156,121.000046 C156,131.122708 149.163362,139.648588 139.855529,142.212242 L139.500888,142.306721 L139.5,150.49787 L139.496119,151.20476 C139.455312,154.910938 139.093472,158.398111 138.444738,161.638761 L162.774615,150.587326 C164.66604,149.72818 165.905613,147.880609 165.994838,145.818556 L166,145.579719 L166,54 C166,51.0365209 163.65622,48.6204609 160.721207,48.5043672 L160.5,48.5 L118.149684,48.4994414 C118.029039,52.0301229 117.803884,56.0822997 117.453779,60.7062165 Z M51.1087583,48.4994414 L48.5,48.5 C45.5365209,48.5 43.1204609,50.84378 43.0043672,53.7787929 L43,54 L43,145.579719 C43,147.657125 44.1695201,149.549818 46.0100648,150.483851 L46.2253849,150.587326 L82.3430231,166.994107 C80.5776902,162.273237 79.5704809,156.926445 79.5035635,151.117579 L79.5,150.49787 L79.5002607,100.728418 C63.1376513,98.9504983 54.3849656,88.3791658 52.3380549,67.0911181 L52.278079,66.4427434 L52.0873942,64.2394493 L51.8593029,61.4193897 L51.8046627,60.7062165 C51.4545583,56.0822997 51.229403,52.0301229 51.1087583,48.4994414 Z M134,107.750046 C126.682227,107.750046 120.75,113.682273 120.75,121.000046 C120.75,128.317819 126.682227,134.250046 134,134.250046 C141.317773,134.250046 147.25,128.317819 147.25,121.000046 C147.25,113.682273 141.317773,107.750046 134,107.750046 Z M134,110.250046 C139.937061,110.250046 144.75,115.062985 144.75,121.000046 C144.75,126.937107 139.937061,131.750046 134,131.750046 C128.062939,131.750046 123.25,126.937107 123.25,121.000046 C123.25,115.062985 128.062939,110.250046 134,110.250046 Z" id="stethoscope" fill="url(#linearGradient-medical-1)" fill-rule="nonzero"></path>
                </g>
            </svg>