<?xml version="1.0" encoding="UTF-8"?>
<svg width="50px" height="50px" viewBox="0 0 50 50" version="1.1" xmlns="http://www.w3.org/2000/svg" xmlns:xlink="http://www.w3.org/1999/xlink">
    <!-- Generator: Sketch 63.1 (92452) - https://sketch.com -->
    <title>Web Study/app icon/behavioral health-webstudy</title>
    <desc>Created with Sketch.</desc>
    <defs>
        <linearGradient x1="88.6884668%" y1="-17.3388344%" x2="43.3295873%" y2="71.1637853%" id="linearGradient-1">
            <stop stop-color="#FFFFFF" offset="0%"></stop>
            <stop stop-color="#DFE3E7" offset="100%"></stop>
        </linearGradient>
        <linearGradient x1="120.580836%" y1="10.5517444%" x2="13.4567305%" y2="55.3729244%" id="linearGradient-2">
            <stop stop-color="#FFFFFF" offset="0%"></stop>
            <stop stop-color="#DFE3E7" offset="100%"></stop>
        </linearGradient>
    </defs>
    <g id="Web-Study/app-icon/behavioral-health-webstudy" stroke="none" stroke-width="1" fill="none" fill-rule="evenodd" opacity="0.7">
        <g id="Group" transform="translate(4.216507, 9.449761)" fill-rule="nonzero">
            <path d="M34.180622,1.0658141e-14 L7.38636364,1.0658141e-14 C5.47054333,1.0658141e-14 3.91746411,1.55307922 3.91746411,3.46889952 L3.91746411,25.3779232 C3.91746411,26.738556 4.71292266,27.9735539 5.95174339,28.5362659 L19.3488726,34.6216704 C20.2604679,35.0357461 21.3065177,35.0357461 22.2181131,34.6216704 L35.6152423,28.5362659 C36.854063,27.9735539 37.6495215,26.738556 37.6495215,25.3779232 L37.6495215,3.46889952 C37.6495215,1.55307922 36.0964423,1.0658141e-14 34.180622,1.0658141e-14 Z M7.38636364,2.15311005 L34.180622,2.15311005 C34.9073125,2.15311005 35.4964115,2.74220906 35.4964115,3.46889952 L35.4964115,25.3779232 C35.4964115,25.8940253 35.1946858,26.3624728 34.7247883,26.5759153 L21.3276591,32.6613197 C20.9818816,32.8183829 20.5851041,32.8183829 20.2393265,32.6613197 L6.84219734,26.5759153 C6.37229982,26.3624728 6.07057416,25.8940253 6.07057416,25.3779232 L6.07057416,3.46889952 C6.07057416,2.74220906 6.65967318,2.15311005 7.38636364,2.15311005 Z" id="D02" fill="url(#linearGradient-1)"></path>
            <path d="M1.00606232,12.8614616 L1.08659885,12.8950232 C8.51496615,15.8771337 12.3692737,17.3204194 12.6495215,17.2248804 C13.3276323,16.9937063 14.3438075,16.735484 15.6980471,16.4502137 C15.8462387,16.4189972 15.9977482,16.4080746 16.1484314,16.4175573 L16.2986857,16.4338458 L22.5289248,17.3954683 C23.4858626,17.6347027 24.0281078,18.2008395 23.9643315,19.1897266 C23.9005551,20.1786138 22.9366029,20.3349282 21.5011962,20.3349282 C20.732904,20.3349282 19.4293237,20.4634356 17.5904552,20.7204502 C18.5352135,21.0944582 19.2074707,21.3645754 19.6086156,21.5317191 C20.0931688,21.7336162 21.6598562,21.7997791 22.7180449,21.5311005 C24.7945606,21.0038642 27.7495737,20.0522722 28.9381406,19.4976077 C30.7323989,18.6602871 31.3304851,18.6602871 32.0481884,19.4976077 C32.7382878,20.3027236 31.8088512,21.4145079 30.6356493,22.0552295 L30.4937831,22.1298052 L21.5218726,27.8708134 C20.7294635,28.2713719 19.7844592,28.2238497 19.0362326,27.745816 C15.0176597,25.2773135 12.4900319,23.7639553 11.4533493,23.2057416 C10.6673685,22.7825212 7.19980921,21.7863139 1.05067134,20.2171198 L1.04665072,20.215311 C0.568181818,20.0956938 0.209330144,19.6172249 0.0897129187,19.138756 C-0.0299043062,18.6602871 -0.0299043062,13.9952153 0.0897129187,13.3971292 C0.198238365,12.854502 0.503688165,12.7057234 1.00606232,12.8614616 Z M22.8466229,5.61821493 C23.992285,5.04021378 24.9742811,5.61821493 25.6289452,6.36135925 C26.2836092,7.10450358 25.7926112,9.16879338 24.8106151,10.4899389 C23.7130824,11.9665234 22.6000035,13.2159318 21.2917957,14.5359469 C20.8826307,14.9488048 20.7189646,14.5359469 20.4547033,14.3401677 L20.4547033,14.3401677 L16.8728132,10.4899389 C15.6453181,8.92107861 15.6453181,7.43478995 16.3818152,6.36135925 C16.7867551,5.77116686 17.0364793,5.61821493 17.9366424,5.61821493 C18.8368054,5.61821493 19.9006346,5.94850129 20.6371316,7.43478995 C21.2917957,6.60907403 21.7009607,6.19621607 22.8466229,5.61821493 Z" id="Combined-Shape" fill="url(#linearGradient-2)"></path>
        </g>
    </g>
</svg>