<?xml version="1.0" encoding="UTF-8"?>
            <svg width="209px" height="209px" viewBox="0 0 209 209" version="1.1" xmlns="http://www.w3.org/2000/svg" xmlns:xlink="http://www.w3.org/1999/xlink">
                <!-- <title>iOS/behavioralhealth non-app</title> -->
                <defs>
                    <linearGradient x1="88.6884668%" y1="-17.3388344%" x2="43.5965592%" y2="70.6428794%" id="linearGradient-behavioralhealth-1">
                        <stop stop-color="#FF7CE8" offset="0%"></stop>
                        <stop stop-color="#C238F3" offset="100%"></stop>
                    </linearGradient>
                    <linearGradient x1="114.760894%" y1="16.4345112%" x2="30.3881243%" y2="54.2023707%" id="linearGradient-behavioralhealth-2">
                        <stop stop-color="#FF7CE8" offset="0%"></stop>
                        <stop stop-color="#C238F3" offset="100%"></stop>
                    </linearGradient>
                    <linearGradient x1="100%" y1="-7.63710544%" x2="54.3056045%" y2="135.683426%" id="linearGradient-behavioralhealth-3">
                        <stop stop-color="#FF7CE8" offset="0%"></stop>
                        <stop stop-color="#C238F3" offset="100%"></stop>
                    </linearGradient>
                </defs>
                <g id="iOS/behavioralhealth-non-app" stroke="none" stroke-width="1" fill="none" fill-rule="evenodd">
                    <g id="app-icon" transform="translate(17.625000, 39.500000)" fill-rule="nonzero">
                        <path d="M142.875,1.42108547e-14 L30.875,1.42108547e-14 C22.8668711,1.42108547e-14 16.375,6.49187113 16.375,14.5 L16.375,106.079719 C16.375,111.767164 19.7000167,116.929455 24.8782874,119.281591 L80.8782874,144.718582 C84.6887559,146.449419 89.0612441,146.449419 92.8717126,144.718582 L148.871713,119.281591 C154.049983,116.929455 157.375,111.767164 157.375,106.079719 L157.375,14.5 C157.375,6.49187113 150.883129,1.42108547e-14 142.875,1.42108547e-14 Z M30.875,9 L142.875,9 C145.912566,9 148.375,11.4624339 148.375,14.5 L148.375,106.079719 C148.375,108.237026 147.113787,110.195136 145.149615,111.087326 L89.1496151,136.524316 C87.704265,137.180841 86.045735,137.180841 84.6003849,136.524316 L28.6003849,111.087326 C26.6362132,110.195136 25.375,108.237026 25.375,106.079719 L25.375,14.5 C25.375,11.4624339 27.8374339,9 30.875,9 Z" id="pocket" fill="url(#linearGradient-behavioralhealth-1)"></path>
                        <path d="M4.15449965,53.7453488 L4.39215931,53.8410468 C35.5407346,66.3470106 51.7016814,72.399995 52.875,72 C55.7095096,71.0336899 59.9571351,69.9543182 65.6178767,68.7618849 C66.3405585,68.6096523 67.0821182,68.572881 67.815045,68.6523198 L68.1285477,68.6934821 L94.1709055,72.7130574 C98.1709055,73.7130574 100.43749,76.0795093 100.170905,80.2130574 C99.9043205,84.3466055 95.875,85 89.875,85 C86.6630952,85 81.2130681,85.537309 73.5249187,86.6119269 C74.7397434,87.0923158 75.8470866,87.5318963 76.8469593,87.9306679 L78.2661667,88.4982186 C79.827875,89.1246532 81.0604711,89.6261098 81.9640132,90.0025857 C83.9894456,90.8465159 90.538199,91.1230767 94.9614275,90 C103.641263,87.7961525 115.993218,83.8184978 120.961428,81.5 C128.461428,78 130.961428,78 133.961428,81.5 C136.913808,84.9444444 132.774727,89.7316979 127.709788,92.3763076 L127.464013,92.5025857 L89.9614275,116.5 C86.6491573,118.174334 82.6990396,117.975692 79.5714522,115.977511 C71.7871824,111.195841 65.3412865,107.271573 60.2337643,104.204709 L59.4384357,103.727592 C53.9489908,100.437653 50.0945122,98.195122 47.875,97 C44.5900082,95.2311583 30.0988005,91.067826 4.40137671,84.510003 L4.375,84.5 L4.375,84.5 C2.375,84 0.875,82 0.375,80 C0.135869565,79.0434783 0.0111058601,74.084121 0.000708884688,68.8960302 L0.000708884688,67.4782609 C0.0111058601,62.2797732 0.135869565,57.1956522 0.375,56 C0.824963742,53.7501813 2.08479696,53.1201015 4.15449965,53.7453488 Z" id="hand" fill="url(#linearGradient-behavioralhealth-2)"></path>
                        <path d="M74.975165,23.4841384 C71.2124833,23.4841384 70.1686365,24.1234775 68.4759875,26.5904817 C65.3974297,31.077422 65.3974297,37.2901086 70.5283594,43.8479444 L85.5006597,59.9419011 C86.6052722,60.7602579 87.2893962,62.4860042 88.999706,60.7602579 C94.4680148,55.2425949 99.1206846,50.0200677 103.708371,43.8479444 C107.813115,38.3255563 109.865487,29.696825 107.128991,26.5904817 C104.392495,23.4841384 100.287751,21.0680936 95.4988836,23.4841384 C90.7100159,25.9001832 88.999706,27.6259294 86.2632102,31.077422 C83.1846525,24.8647354 78.7378468,23.4841384 74.975165,23.4841384 Z" id="heart-" fill="url(#linearGradient-behavioralhealth-3)"></path>
                    </g>
                </g>
            </svg>